<svg width="88" height="82" viewBox="0 0 88 82" fill="none" xmlns="http://www.w3.org/2000/svg">
<path fill-rule="evenodd" clip-rule="evenodd" d="M44 82C68.3005 82 88 63.6437 88 41C88 18.3563 68.3005 0 44 0C19.6995 0 0 18.3563 0 41C0 63.6437 19.6995 82 44 82ZM56.8913 41.2929C62.2274 43.3894 66.8913 38.7928 63.8913 33.2929L47.3913 18.7929C45.0248 17.8091 43.5453 17.6647 40.3913 18.7929L23.5001 33C21 38.5 24.3913 42.2928 29.8913 42.2929L38.3913 35.2929V59.2929C40.3913 65.2928 47.3913 64.7928 49.3913 59.2929V34.7928L56.8913 41.2929Z" fill="#F74242" fill-opacity="0.65"/>
</svg>
